<svg xmlns="http://www.w3.org/2000/svg" viewBox="0 0 1200 720" role="img" aria-labelledby="title desc">
  <title id="title">Secure and accountable artificial intelligence</title><desc id="desc">Original Digital-UNI abstract artwork showing a secure AI core with human oversight.</desc>
  <defs><linearGradient id="bg"><stop stop-color="#050b16"/><stop offset=".55" stop-color="#10344c"/><stop offset="1" stop-color="#062e2a"/></linearGradient><radialGradient id="glow"><stop stop-color="#54efad" stop-opacity=".55"/><stop offset="1" stop-color="#54efad" stop-opacity="0"/></radialGradient></defs>
  <rect width="1200" height="720" fill="url(#bg)"/><circle cx="600" cy="340" r="330" fill="url(#glow)"/>
  <g stroke="#76f4b9" stroke-width="4" fill="none" opacity=".55"><path d="M100 130h270l80 80M1100 130H830l-80 80M100 590h270l80-80M1100 590H830l-80-80"/><circle cx="100" cy="130" r="12" fill="#d9b559"/><circle cx="1100" cy="130" r="12" fill="#d9b559"/><circle cx="100" cy="590" r="12" fill="#d9b559"/><circle cx="1100" cy="590" r="12" fill="#d9b559"/></g>
  <g transform="translate(390 80)"><path d="M210 0 390 70v155c0 137-75 226-180 273C105 451 30 362 30 225V70Z" fill="#07182a" stroke="#d9b559" stroke-width="9"/><rect x="115" y="170" width="190" height="170" rx="28" fill="#0b785e" stroke="#87f8c5" stroke-width="7"/><path d="M155 170v-45a55 55 0 0 1 110 0v45" fill="none" stroke="#87f8c5" stroke-width="18"/><text x="210" y="275" fill="white" font-family="Arial,sans-serif" font-size="78" font-weight="800" text-anchor="middle">AI</text></g>
  <g fill="#fff"><circle cx="245" cy="340" r="42"/><path d="M175 495c13-82 40-124 70-124s57 42 70 124Z" opacity=".75"/><circle cx="955" cy="340" r="42"/><path d="M885 495c13-82 40-124 70-124s57 42 70 124Z" opacity=".75"/></g>
</svg>
